<mxfile host="app.diagrams.net" agent="Mozilla/5.0 (Windows NT 10.0; Win64; x64) AppleWebKit/537.36 (KHTML, like Gecko) Chrome/128.0.0.0 Safari/537.36 Edg/128.0.0.0" version="24.7.15">
  <diagram name="Page-1" id="g7uGwn3zW_pi9JAo-VF5">
    <mxGraphModel>
      <root>
        <mxCell id="0" />
        <mxCell id="1" parent="0" />
        <mxCell id="2" value="Start" style="ellipse;aspect=fixed;strokeWidth=2;whiteSpace=wrap;" vertex="1" parent="1">
          <mxGeometry x="231" y="8" width="51" height="51" as="geometry" />
        </mxCell>
        <mxCell id="3" value="User input" style="rhombus;strokeWidth=2;whiteSpace=wrap;" vertex="1" parent="1">
          <mxGeometry x="194" y="132" width="124" height="124" as="geometry" />
        </mxCell>
        <mxCell id="4" value="Check requirements" style="rhombus;strokeWidth=2;whiteSpace=wrap;" vertex="1" parent="1">
          <mxGeometry x="159" y="328" width="193" height="193" as="geometry" />
        </mxCell>
        <mxCell id="5" value="Create Referral" style="rhombus;strokeWidth=2;whiteSpace=wrap;" vertex="1" parent="1">
          <mxGeometry x="78" y="594" width="160" height="160" as="geometry" />
        </mxCell>
        <mxCell id="6" value="Notify user of failure" style="rhombus;strokeWidth=2;whiteSpace=wrap;" vertex="1" parent="1">
          <mxGeometry x="287" y="839" width="199" height="199" as="geometry" />
        </mxCell>
        <mxCell id="7" value="Display success message" style="rhombus;strokeWidth=2;whiteSpace=wrap;" vertex="1" parent="1">
          <mxGeometry x="8" y="827" width="223" height="223" as="geometry" />
        </mxCell>
        <mxCell id="8" value="End" style="ellipse;aspect=fixed;strokeWidth=2;whiteSpace=wrap;" vertex="1" parent="1">
          <mxGeometry x="235" y="1100" width="41" height="41" as="geometry" />
        </mxCell>
        <mxCell id="9" value="" style="curved=1;startArrow=none;endArrow=block;exitX=0.22;exitY=0.99;entryX=0.33;entryY=0;" edge="1" parent="1" source="2" target="3">
          <mxGeometry relative="1" as="geometry">
            <Array as="points">
              <mxPoint x="222" y="95" />
            </Array>
          </mxGeometry>
        </mxCell>
        <mxCell id="10" value="Valid input" style="curved=1;startArrow=none;endArrow=block;exitX=0.5;exitY=0.99;entryX=0.5;entryY=0;" edge="1" parent="1" source="3" target="4">
          <mxGeometry relative="1" as="geometry">
            <Array as="points" />
          </mxGeometry>
        </mxCell>
        <mxCell id="11" value="Invalid input" style="curved=1;startArrow=none;endArrow=block;exitX=0.67;exitY=0;entryX=0.76;entryY=0.99;" edge="1" parent="1" source="3" target="2">
          <mxGeometry relative="1" as="geometry">
            <Array as="points">
              <mxPoint x="290" y="95" />
            </Array>
          </mxGeometry>
        </mxCell>
        <mxCell id="12" value="Requirements met" style="curved=1;startArrow=none;endArrow=block;exitX=0.13;exitY=1;entryX=0.5;entryY=0;" edge="1" parent="1" source="4" target="5">
          <mxGeometry relative="1" as="geometry">
            <Array as="points">
              <mxPoint x="157" y="558" />
            </Array>
          </mxGeometry>
        </mxCell>
        <mxCell id="13" value="Requirements not met" style="curved=1;startArrow=none;endArrow=block;exitX=1;exitY=0.93;entryX=0.58;entryY=0;" edge="1" parent="1" source="4" target="6">
          <mxGeometry relative="1" as="geometry">
            <Array as="points">
              <mxPoint x="410" y="558" />
              <mxPoint x="410" y="790" />
            </Array>
          </mxGeometry>
        </mxCell>
        <mxCell id="14" value="Success" style="curved=1;startArrow=none;endArrow=block;exitX=0.33;exitY=1;entryX=0.5;entryY=0;" edge="1" parent="1" source="5" target="7">
          <mxGeometry relative="1" as="geometry">
            <Array as="points">
              <mxPoint x="119" y="790" />
            </Array>
          </mxGeometry>
        </mxCell>
        <mxCell id="15" value="Failure" style="curved=1;startArrow=none;endArrow=block;exitX=1;exitY=0.95;entryX=0.17;entryY=0;" edge="1" parent="1" source="5" target="6">
          <mxGeometry relative="1" as="geometry">
            <Array as="points">
              <mxPoint x="288" y="790" />
            </Array>
          </mxGeometry>
        </mxCell>
        <mxCell id="16" value="" style="curved=1;startArrow=none;endArrow=block;exitX=0.5;exitY=1;entryX=0.01;entryY=0.32;" edge="1" parent="1" source="7" target="8">
          <mxGeometry relative="1" as="geometry">
            <Array as="points">
              <mxPoint x="119" y="1075" />
            </Array>
          </mxGeometry>
        </mxCell>
        <mxCell id="17" value="" style="curved=1;startArrow=none;endArrow=block;exitX=0.5;exitY=1;entryX=1.01;entryY=0.32;" edge="1" parent="1" source="6" target="8">
          <mxGeometry relative="1" as="geometry">
            <Array as="points">
              <mxPoint x="386" y="1075" />
            </Array>
          </mxGeometry>
        </mxCell>
      </root>
    </mxGraphModel>
  </diagram>
</mxfile>
